<svg width="24" height="112" viewBox="0 0 24 112" fill="none" xmlns="http://www.w3.org/2000/svg">
<path d="M2.85 110C2.85 110.417 2.71667 110.767 2.45 111.05C2.16667 111.317 1.81667 111.45 1.4 111.45C0.999999 111.45 0.666666 111.317 0.399999 111.05C0.133332 110.767 -7.15256e-07 110.417 -7.15256e-07 110C-7.15256e-07 109.6 0.133332 109.258 0.399999 108.975C0.666666 108.692 0.999999 108.55 1.4 108.55C1.81667 108.55 2.16667 108.692 2.45 108.975C2.71667 109.258 2.85 109.6 2.85 110ZM18 111.05H5.6V108.95H18V111.05ZM18 105.294H5.6V103.394L7.825 103.269C7.04167 102.869 6.425 102.294 5.975 101.544C5.525 100.794 5.3 99.9436 5.3 98.9936C5.3 97.5269 5.75 96.3602 6.65 95.4936C7.53333 94.6102 8.9 94.1686 10.75 94.1686H18V96.2686H10.975C8.39167 96.2686 7.1 97.3352 7.1 99.4686C7.1 100.535 7.49167 101.427 8.275 102.144C9.04167 102.844 10.1417 103.194 11.575 103.194H18V105.294ZM18.3 86.2369C18.3 87.7202 17.925 88.9536 17.175 89.9369C16.425 90.9202 15.4083 91.4952 14.125 91.6619V89.5119C14.775 89.3786 15.3417 89.0369 15.825 88.4869C16.2917 87.9202 16.525 87.1619 16.525 86.2119C16.525 85.3286 16.3417 84.6786 15.975 84.2619C15.5917 83.8452 15.1417 83.6369 14.625 83.6369C13.875 83.6369 13.375 83.9119 13.125 84.4619C12.875 84.9952 12.65 85.7536 12.45 86.7369C12.3167 87.4036 12.125 88.0702 11.875 88.7369C11.625 89.4036 11.275 89.9619 10.825 90.4119C10.3583 90.8619 9.75 91.0869 9 91.0869C7.91667 91.0869 7.03333 90.6869 6.35 89.8869C5.65 89.0702 5.3 87.9702 5.3 86.5869C5.3 85.2702 5.63333 84.1952 6.3 83.3619C6.95 82.5119 7.88333 82.0202 9.1 81.8869V83.9619C8.46667 84.0452 7.975 84.3202 7.625 84.7869C7.25833 85.2369 7.075 85.8452 7.075 86.6119C7.075 87.3619 7.23333 87.9452 7.55 88.3619C7.86667 88.7619 8.28333 88.9619 8.8 88.9619C9.3 88.9619 9.69167 88.7036 9.975 88.1869C10.2583 87.6536 10.5 86.9369 10.7 86.0369C10.8667 85.2702 11.075 84.5452 11.325 83.8619C11.5583 83.1619 11.9167 82.5952 12.4 82.1619C12.8667 81.7119 13.55 81.4869 14.45 81.4869C15.5667 81.4702 16.4917 81.8952 17.225 82.7619C17.9417 83.6119 18.3 84.7702 18.3 86.2369ZM18 74.1484C18 75.2818 17.725 76.1734 17.175 76.8234C16.625 77.4734 15.6333 77.7984 14.2 77.7984H7.375V79.9484H5.6V77.7984L2.625 77.5234V75.6984H5.6V72.0484H7.375V75.6984H14.2C14.9833 75.6984 15.5167 75.5401 15.8 75.2234C16.0667 74.9068 16.2 74.3484 16.2 73.5484V72.2484H18V74.1484ZM18.3 65.2555C18.3 66.2888 18.125 67.1471 17.775 67.8305C17.425 68.5138 16.9583 69.0221 16.375 69.3555C15.7917 69.6888 15.1583 69.8555 14.475 69.8555C13.2083 69.8555 12.2333 69.3721 11.55 68.4055C10.8667 67.4388 10.525 66.1221 10.525 64.4555V61.1055H10.375C9.29167 61.1055 8.475 61.3888 7.925 61.9555C7.35833 62.5221 7.075 63.2805 7.075 64.2305C7.075 65.0471 7.28333 65.7555 7.7 66.3555C8.1 66.9388 8.69167 67.3055 9.475 67.4555V69.6055C8.575 69.5221 7.81667 69.2221 7.2 68.7055C6.58333 68.1721 6.11667 67.5138 5.8 66.7305C5.46667 65.9471 5.3 65.1138 5.3 64.2305C5.3 62.4971 5.76667 61.1971 6.7 60.3305C7.61667 59.4471 8.84167 59.0055 10.375 59.0055H18V60.8805L15.775 61.0055C16.475 61.3555 17.075 61.8721 17.575 62.5555C18.0583 63.2221 18.3 64.1221 18.3 65.2555ZM16.525 64.9305C16.525 64.1305 16.3167 63.4471 15.9 62.8805C15.4833 62.2971 14.9417 61.8555 14.275 61.5555C13.6083 61.2555 12.9083 61.1055 12.175 61.1055H12.15V64.2805C12.15 65.5138 12.3667 66.3888 12.8 66.9055C13.2167 67.4055 13.7417 67.6555 14.375 67.6555C15.025 67.6555 15.55 67.4221 15.95 66.9555C16.3333 66.4721 16.525 65.7971 16.525 64.9305ZM14.1 50.9551C14.1 51.6551 14.0083 52.2967 13.825 52.8801L15 54.1301C15.1333 53.9467 15.25 53.7217 15.35 53.4551C15.4333 53.1717 15.5167 52.7717 15.6 52.2551C15.6667 51.7384 15.7417 51.0134 15.825 50.0801C15.9417 48.4134 16.325 47.2217 16.975 46.5051C17.625 45.7884 18.475 45.4301 19.525 45.4301C20.2417 45.4301 20.925 45.6301 21.575 46.0301C22.225 46.4134 22.7583 47.0134 23.175 47.8301C23.5917 48.6301 23.8 49.6634 23.8 50.9301C23.8 52.0467 23.65 53.0384 23.35 53.9051C23.0667 54.7717 22.625 55.4467 22.025 55.9301C21.4417 56.4134 20.7 56.6551 19.8 56.6551C19.3333 56.6551 18.825 56.5301 18.275 56.2801C17.7417 56.0301 17.2333 55.5634 16.75 54.8801C16.6 55.2467 16.4417 55.5634 16.275 55.8301C16.0917 56.0801 15.8917 56.3134 15.675 56.5301H15.1L13 54.4051C12.1667 55.3884 11.0667 55.8801 9.7 55.8801C8.88333 55.8801 8.14167 55.6884 7.475 55.3051C6.80833 54.9217 6.28333 54.3634 5.9 53.6301C5.5 52.8967 5.3 52.0051 5.3 50.9551C5.3 50.2384 5.4 49.5884 5.6 49.0051V44.4301H7.175L7.275 46.7551C7.975 46.2717 8.78333 46.0301 9.7 46.0301C10.5167 46.0301 11.2583 46.2301 11.925 46.6301C12.5917 47.0134 13.125 47.5717 13.525 48.3051C13.9083 49.0217 14.1 49.9051 14.1 50.9551ZM12.375 50.9551C12.375 50.0717 12.15 49.3717 11.7 48.8551C11.2333 48.3217 10.5667 48.0551 9.7 48.0551C8.85 48.0551 8.2 48.3217 7.75 48.8551C7.28333 49.3717 7.05 50.0717 7.05 50.9551C7.05 51.8551 7.28333 52.5717 7.75 53.1051C8.2 53.6217 8.85 53.8801 9.7 53.8801C10.5667 53.8801 11.2333 53.6217 11.7 53.1051C12.15 52.5717 12.375 51.8551 12.375 50.9551ZM19.6 54.6051C20.4333 54.6051 21.05 54.2551 21.45 53.5551C21.8667 52.8551 22.075 51.9801 22.075 50.9301C22.075 49.8967 21.85 49.0717 21.4 48.4551C20.95 47.8217 20.35 47.5051 19.6 47.5051C19.0667 47.5051 18.6 47.7217 18.2 48.1551C17.8167 48.5884 17.5917 49.3884 17.525 50.5551C17.4583 51.4717 17.375 52.2634 17.275 52.9301C17.6417 53.6134 18.0333 54.0634 18.45 54.2801C18.8833 54.4967 19.2667 54.6051 19.6 54.6051ZM18 42.0611H5.6L5.6 40.1611L7.975 39.9861C7.15833 39.6028 6.50833 39.0195 6.025 38.2361C5.54167 37.4528 5.3 36.4861 5.3 35.3361H7.5V35.9111C7.5 36.6445 7.63333 37.3195 7.9 37.9361C8.15 38.5528 8.58333 39.0445 9.2 39.4111C9.81667 39.7778 10.6667 39.9611 11.75 39.9611H18V42.0611ZM18.3 28.8541C18.3 29.8874 18.125 30.7458 17.775 31.4291C17.425 32.1124 16.9583 32.6208 16.375 32.9541C15.7917 33.2874 15.1583 33.4541 14.475 33.4541C13.2083 33.4541 12.2333 32.9708 11.55 32.0041C10.8667 31.0374 10.525 29.7208 10.525 28.0541L10.525 24.7041H10.375C9.29167 24.7041 8.475 24.9874 7.925 25.5541C7.35833 26.1208 7.075 26.8791 7.075 27.8291C7.075 28.6458 7.28333 29.3541 7.7 29.9541C8.1 30.5374 8.69167 30.9041 9.475 31.0541V33.2041C8.575 33.1208 7.81667 32.8208 7.2 32.3041C6.58333 31.7708 6.11667 31.1124 5.8 30.3291C5.46667 29.5458 5.3 28.7124 5.3 27.8291C5.3 26.0958 5.76667 24.7958 6.7 23.9291C7.61667 23.0458 8.84167 22.6041 10.375 22.6041H18V24.4791L15.775 24.6041C16.475 24.9541 17.075 25.4708 17.575 26.1541C18.0583 26.8208 18.3 27.7208 18.3 28.8541ZM16.525 28.5291C16.525 27.7291 16.3167 27.0458 15.9 26.4791C15.4833 25.8958 14.9417 25.4541 14.275 25.1541C13.6083 24.8541 12.9083 24.7041 12.175 24.7041H12.15L12.15 27.8791C12.15 29.1124 12.3667 29.9874 12.8 30.5041C13.2167 31.0041 13.7417 31.2541 14.375 31.2541C15.025 31.2541 15.55 31.0208 15.95 30.5541C16.3333 30.0708 16.525 29.3958 16.525 28.5291ZM18 19.4537H5.6V17.5537L7.4 17.4037C6.73333 17.0037 6.21667 16.4704 5.85 15.8037C5.48333 15.137 5.3 14.387 5.3 13.5537C5.3 12.5704 5.5 11.7287 5.9 11.0287C6.3 10.312 6.90833 9.76204 7.725 9.37871C6.975 8.94538 6.38333 8.35371 5.95 7.60371C5.51667 6.83704 5.3 6.01204 5.3 5.12871C5.3 3.64538 5.75 2.46204 6.65 1.57871C7.53333 0.695377 8.9 0.253711 10.75 0.253711H18V2.32871H10.975C9.69167 2.32871 8.725 2.58704 8.075 3.10371C7.425 3.62038 7.1 4.36204 7.1 5.32871C7.1 6.32871 7.49167 7.16204 8.275 7.82871C9.04167 8.47871 10.1417 8.80371 11.575 8.80371H18V10.9037H10.975C9.69167 10.9037 8.725 11.162 8.075 11.6787C7.425 12.1954 7.1 12.937 7.1 13.9037C7.1 14.887 7.49167 15.712 8.275 16.3787C9.04167 17.0287 10.1417 17.3537 11.575 17.3537H18V19.4537Z" fill="white" fill-opacity="0.6"/>
</svg>
