<svg width="20" height="15" viewBox="0 0 20 15" fill="none" xmlns="http://www.w3.org/2000/svg">
<path fill-rule="evenodd" clip-rule="evenodd" d="M0 1C0 0.447715 0.447715 0 1 0H9C9.55229 0 10 0.447715 10 1C10 1.55228 9.55229 2 9 2H1C0.447715 2 0 1.55228 0 1ZM10 14C10 13.4477 10.4477 13 11 13H19C19.5523 13 20 13.4477 20 14C20 14.5523 19.5523 15 19 15H11C10.4477 15 10 14.5523 10 14ZM1 6C0.447715 6 0 6.44772 0 7C0 7.55228 0.447715 8 1 8H19C19.5523 8 20 7.55228 20 7C20 6.44772 19.5523 6 19 6H1Z" fill="white"/>
</svg>
