<svg width="19" height="77" viewBox="0 0 19 77" fill="none" xmlns="http://www.w3.org/2000/svg">
<path d="M18 70.375C18 71.5083 17.725 72.4 17.175 73.05C16.625 73.7 15.6333 74.025 14.2 74.025H7.375V76.175H5.6V74.025L2.625 73.75V71.925H5.6V68.275H7.375V71.925H14.2C14.9833 71.925 15.5167 71.7667 15.8 71.45C16.0667 71.1333 16.2 70.575 16.2 69.775V68.475H18V70.375ZM18 63.107L5.6 66.732V64.632L15.325 62.007L5.6 59.107V56.732L15.325 53.807L5.6 51.207V49.082L18 52.707V54.857L7.775 57.907L18 60.957V63.107ZM2.85 45.4844C2.85 45.901 2.71667 46.251 2.45 46.5344C2.16667 46.801 1.81667 46.9344 1.4 46.9344C0.999999 46.9344 0.666666 46.801 0.399999 46.5344C0.133332 46.251 -7.15256e-07 45.901 -7.15256e-07 45.4844C-7.15256e-07 45.0844 0.133332 44.7427 0.399999 44.4594C0.666666 44.176 0.999999 44.0344 1.4 44.0344C1.81667 44.0344 2.16667 44.176 2.45 44.4594C2.71667 44.7427 2.85 45.0844 2.85 45.4844ZM18 46.5344H5.6V44.4344H18V46.5344ZM18 35.8779C18 37.0113 17.725 37.9029 17.175 38.5529C16.625 39.2029 15.6333 39.5279 14.2 39.5279H7.375V41.6779H5.6V39.5279L2.625 39.2529V37.4279H5.6V33.7779H7.375V37.4279H14.2C14.9833 37.4279 15.5167 37.2696 15.8 36.9529C16.0667 36.6363 16.2 36.0779 16.2 35.2779V33.9779H18V35.8779ZM18 26.21C18 27.3433 17.725 28.235 17.175 28.885C16.625 29.535 15.6333 29.86 14.2 29.86H7.375V32.01H5.6V29.86L2.625 29.585V27.76H5.6V24.11H7.375V27.76H14.2C14.9833 27.76 15.5167 27.6016 15.8 27.285C16.0667 26.9683 16.2 26.41 16.2 25.61V24.31H18V26.21ZM18.3 16.2088C18.3 17.3921 18.0333 18.4421 17.5 19.3588C16.95 20.2755 16.1917 21.0005 15.225 21.5338C14.2583 22.0505 13.1167 22.3088 11.8 22.3088C10.5 22.3088 9.36667 22.0505 8.4 21.5338C7.41667 21.0171 6.65833 20.3005 6.125 19.3838C5.575 18.4505 5.3 17.3755 5.3 16.1588C5.3 14.9588 5.575 13.9255 6.125 13.0588C6.65833 12.1755 7.36667 11.5005 8.25 11.0338C9.13333 10.5671 10.0833 10.3338 11.1 10.3338C11.2833 10.3338 11.4667 10.3421 11.65 10.3588C11.8333 10.3588 12.0417 10.3588 12.275 10.3588V20.2338C13.225 20.1838 14.0167 19.9671 14.65 19.5838C15.2667 19.1838 15.7333 18.6921 16.05 18.1088C16.3667 17.5088 16.525 16.8755 16.525 16.2088C16.525 15.3421 16.325 14.6171 15.925 14.0338C15.525 13.4505 14.9833 13.0255 14.3 12.7588V10.6838C15.45 11.0171 16.4083 11.6588 17.175 12.6088C17.925 13.5421 18.3 14.7421 18.3 16.2088ZM7.075 16.2088C7.075 17.2088 7.38333 18.1005 8 18.8838C8.6 19.6505 9.48333 20.0921 10.65 20.2088V12.4088C9.53333 12.4588 8.65833 12.8421 8.025 13.5588C7.39167 14.2755 7.075 15.1588 7.075 16.2088ZM18 7.55039H5.6V5.65039L7.975 5.47539C7.15833 5.09206 6.50833 4.50872 6.025 3.72539C5.54167 2.94206 5.3 1.97539 5.3 0.82539H7.5V1.40039C7.5 2.13372 7.63333 2.80872 7.9 3.42539C8.15 4.04206 8.58333 4.53372 9.2 4.90039C9.81667 5.26706 10.6667 5.45039 11.75 5.45039H18V7.55039Z" fill="white" fill-opacity="0.6"/>
</svg>
